<?xml version="1.0" standalone="no"?>
<!DOCTYPE svg PUBLIC "-//W3C//DTD SVG 20010904//EN"
 "http://www.w3.org/TR/2001/REC-SVG-20010904/DTD/svg10.dtd">
<svg version="1.0" xmlns="http://www.w3.org/2000/svg"
 width="2048.000000pt" height="2048.000000pt" viewBox="0 0 2048.000000 2048.000000"
 preserveAspectRatio="xMidYMid meet">
<metadata>
Created by potrace 1.14, written by Peter Selinger 2001-2017
</metadata>
<g transform="translate(0.000000,2048.000000) scale(0.100000,-0.100000)"
fill="#000000" stroke="none">
<path d="M9460 19479 c-402 -33 -418 -36 -865 -157 -60 -16 -204 -55 -320 -86
-317 -86 -507 -154 -720 -256 -163 -79 -361 -162 -560 -236 -91 -34 -335 -215
-484 -358 -40 -39 -119 -127 -174 -196 -56 -69 -138 -164 -183 -211 -44 -47
-101 -115 -126 -150 -58 -82 -237 -374 -254 -416 -8 -17 -31 -57 -53 -87 -21
-31 -44 -69 -51 -86 -7 -16 -16 -30 -20 -30 -10 0 -20 37 -20 80 0 19 -9 79
-20 133 -17 84 -20 139 -20 361 0 145 -3 265 -6 269 -4 3 -19 0 -34 -8 -40
-21 -86 -107 -112 -211 -21 -83 -23 -110 -23 -399 0 -279 2 -323 23 -440 23
-130 56 -278 91 -410 10 -38 21 -88 25 -110 l7 -40 -18 30 c-35 57 -77 160
-149 370 -40 116 -90 262 -113 325 -49 142 -62 232 -70 510 -4 142 -11 222
-19 237 -16 29 -51 53 -79 53 -19 0 -24 -9 -37 -72 -24 -111 -41 -308 -40
-458 1 -155 20 -263 66 -379 16 -42 66 -182 110 -311 61 -181 100 -276 168
-411 167 -332 222 -418 368 -571 49 -51 122 -142 163 -202 41 -60 98 -136 128
-168 63 -69 66 -55 -40 -198 -39 -52 -82 -115 -96 -140 -15 -25 -45 -72 -68
-105 -23 -33 -81 -125 -129 -205 -48 -80 -114 -188 -147 -240 -75 -121 -294
-641 -353 -840 -33 -109 -49 -415 -42 -800 12 -706 31 -1056 68 -1247 l22
-111 -32 -69 c-17 -37 -40 -93 -52 -123 -48 -128 -67 -468 -31 -571 21 -61
135 -285 174 -342 42 -61 117 -285 152 -454 10 -46 19 -151 22 -258 5 -158 3
-193 -16 -285 -12 -58 -28 -175 -36 -260 -8 -85 -21 -180 -29 -210 -8 -30 -22
-106 -30 -167 -9 -62 -20 -132 -25 -155 -5 -24 -19 -101 -31 -173 -11 -71 -29
-166 -40 -210 -29 -124 -48 -276 -55 -440 -6 -131 -5 -161 13 -235 11 -47 30
-137 42 -200 28 -151 48 -198 156 -365 50 -77 106 -167 126 -200 19 -33 54
-90 76 -126 70 -114 217 -417 287 -594 87 -220 188 -438 275 -595 84 -153 102
-196 190 -455 38 -113 93 -256 121 -317 61 -133 101 -243 224 -608 79 -237
219 -599 367 -953 22 -54 62 -133 87 -176 53 -87 235 -322 327 -421 33 -36 99
-111 146 -166 78 -91 243 -240 338 -304 19 -13 85 -61 145 -106 300 -223 475
-310 786 -392 173 -46 302 -50 559 -17 233 29 251 33 490 122 202 74 356 146
489 226 72 44 128 67 240 102 80 25 173 56 206 69 104 41 307 138 385 184 41
25 115 62 165 84 49 22 106 49 125 61 87 53 416 295 477 351 37 34 115 98 173
141 363 272 593 488 803 754 37 47 105 124 151 171 146 149 307 364 416 555
35 61 100 164 145 230 45 66 109 167 141 225 31 58 90 155 130 216 64 98 134
220 306 540 27 51 75 156 107 235 33 79 75 182 95 229 19 47 46 137 60 200 67
308 86 406 106 538 12 78 35 193 51 254 16 62 29 129 29 150 0 43 3 44 53 23
54 -22 169 -20 217 5 201 103 574 413 732 609 34 42 103 119 152 171 110 115
176 200 176 227 0 11 12 30 26 44 42 39 168 237 213 334 23 50 60 117 81 150
49 76 66 122 90 254 19 106 47 193 114 348 48 114 76 207 76 259 0 27 16 85
41 151 41 108 41 108 50 303 4 107 13 224 18 260 41 270 41 275 31 386 -18
201 -55 300 -142 387 -47 47 -64 56 -148 82 -87 27 -107 30 -245 30 -166 0
-204 -8 -377 -73 -57 -22 -104 -38 -105 -38 -1 1 5 90 14 197 16 182 16 203
-1 334 -26 214 -39 452 -26 503 11 45 15 887 4 970 -4 35 1 67 20 127 14 44
32 114 41 155 16 78 53 204 112 379 l35 104 -6 231 c-11 422 -24 751 -31 776
-3 14 3 95 14 179 12 85 21 191 21 235 0 45 8 122 17 171 24 126 23 475 -1
555 -9 30 -24 87 -33 125 -24 110 -106 288 -188 410 -71 107 -155 206 -280
330 -133 133 -318 345 -376 430 -84 124 -129 175 -317 360 -177 174 -240 219
-430 311 -63 31 -184 98 -270 151 -86 53 -211 126 -277 163 -66 36 -163 92
-217 123 -205 121 -437 216 -650 265 -48 11 -113 34 -145 50 -32 17 -94 48
-138 70 -44 23 -188 77 -320 121 -132 43 -283 99 -336 124 -52 24 -120 52
-150 62 -30 10 -76 29 -104 43 -90 45 -250 109 -300 120 -28 6 -79 14 -115 17
-92 8 -224 33 -297 55 -77 24 -288 65 -408 80 -49 7 -117 18 -150 27 -117 29
-819 43 -1085 22z m232 -3775 c84 -14 202 -41 263 -59 119 -36 188 -50 305
-60 41 -4 179 -22 305 -40 253 -37 339 -45 770 -75 297 -20 532 -55 680 -101
69 -21 302 -126 395 -178 30 -17 138 -58 239 -91 209 -69 209 -69 263 -118 67
-61 91 -120 96 -237 3 -96 1 -110 -61 -355 -36 -140 -76 -329 -90 -420 -33
-217 -54 -646 -38 -805 14 -145 53 -317 90 -399 39 -86 170 -275 221 -319 56
-47 211 -131 309 -167 113 -41 148 -61 293 -165 101 -72 133 -102 164 -149 22
-33 42 -68 46 -78 27 -67 58 -411 58 -635 0 -100 4 -215 9 -255 5 -40 15 -122
21 -183 7 -60 16 -128 20 -150 5 -22 14 -89 20 -150 6 -60 17 -144 25 -185 22
-113 75 -509 85 -631 5 -58 16 -133 24 -165 21 -81 88 -238 183 -429 228 -455
251 -520 278 -773 17 -163 13 -280 -13 -397 -11 -49 -25 -130 -32 -179 -6 -50
-13 -93 -15 -96 -2 -4 1 -52 6 -108 9 -84 8 -111 -5 -159 -9 -32 -21 -85 -26
-118 -21 -118 -29 -162 -54 -270 -14 -60 -35 -175 -46 -254 -12 -79 -34 -200
-51 -270 -17 -69 -39 -168 -49 -219 -11 -51 -36 -127 -56 -170 -19 -42 -58
-133 -85 -202 -27 -69 -99 -215 -158 -325 -60 -110 -117 -216 -126 -235 -10
-19 -55 -91 -100 -160 -45 -69 -107 -172 -139 -230 -32 -58 -96 -159 -141
-225 -45 -66 -110 -169 -145 -230 -101 -177 -272 -406 -385 -515 -32 -30 -91
-98 -133 -150 -114 -143 -345 -390 -436 -468 -102 -87 -252 -206 -380 -302
-55 -41 -127 -100 -160 -131 -93 -86 -421 -319 -511 -361 -44 -21 -107 -52
-140 -70 -352 -182 -433 -219 -600 -268 -158 -48 -243 -85 -361 -156 -126 -78
-276 -141 -574 -245 -122 -42 -438 -83 -575 -74 -150 10 -399 81 -552 159 -83
41 -260 157 -368 240 -44 34 -102 77 -130 96 -82 55 -230 186 -292 258 -32 37
-94 108 -139 158 -88 99 -252 302 -301 374 -49 73 -69 117 -221 495 -181 451
-193 483 -238 630 -53 177 -170 496 -221 605 -24 52 -78 194 -120 315 -94 274
-124 344 -212 503 -86 157 -172 344 -263 572 -113 284 -297 628 -513 960 -38
58 -76 125 -86 150 -9 25 -34 128 -55 230 l-37 185 11 170 c6 94 21 213 32
265 11 52 30 147 41 210 11 63 31 176 44 250 13 74 26 159 30 189 3 30 15 91
26 135 10 45 24 142 29 216 6 74 20 177 31 229 33 161 23 555 -17 699 -5 19
-2 22 19 22 13 0 53 19 88 43 103 69 168 86 367 99 95 6 175 9 178 5 3 -3 -6
-25 -20 -49 -23 -39 -38 -94 -67 -248 -38 -194 6 -364 128 -492 69 -71 120
-93 223 -92 65 0 84 4 144 34 39 19 96 59 128 88 39 37 58 49 58 38 0 -31 30
-75 61 -92 40 -20 88 -12 120 22 23 25 24 31 21 142 -5 230 -79 457 -182 562
-38 38 -251 170 -365 226 -38 19 -106 43 -150 55 -85 22 -114 22 -386 -1 -162
-13 -294 -62 -386 -143 -30 -27 -33 -27 -40 -10 -36 102 -79 199 -163 368 -54
110 -101 214 -105 231 l-6 31 149 76 c81 42 173 85 203 97 154 59 366 94 639
106 128 6 155 4 232 -15 126 -31 322 -105 400 -152 37 -22 96 -52 130 -68 119
-54 231 -185 257 -301 30 -131 63 -333 76 -466 9 -82 27 -209 40 -283 20 -109
25 -166 25 -305 0 -182 -12 -277 -56 -439 -13 -51 -35 -159 -49 -242 -42 -260
-112 -579 -150 -686 -20 -57 -59 -167 -86 -244 -28 -77 -63 -189 -79 -248 -16
-59 -32 -111 -34 -115 -13 -22 -98 -355 -120 -472 -49 -264 -65 -521 -42 -660
25 -145 60 -207 173 -305 128 -112 255 -176 518 -264 116 -38 228 -77 250 -86
27 -12 57 -16 94 -13 72 6 95 33 88 98 -8 72 -30 85 -312 178 -286 94 -405
152 -513 248 -81 74 -91 98 -99 246 -14 265 32 543 173 1033 30 105 135 412
163 477 46 108 139 522 184 818 8 52 26 138 41 190 45 166 66 320 66 474 0
133 -7 200 -44 411 -8 50 -22 155 -30 235 -8 80 -24 195 -36 255 -12 61 -27
142 -35 181 -16 88 -133 370 -182 442 -65 95 -168 165 -525 354 -302 160 -394
182 -738 181 -124 0 -274 -5 -335 -11 -60 -6 -153 -12 -205 -14 l-95 -2 -12
49 c-24 96 -34 204 -48 515 -34 752 -29 1306 11 1449 40 142 258 677 315 773
17 28 47 76 68 107 21 31 68 108 106 171 37 63 91 151 120 195 224 342 245
369 325 410 19 10 108 66 196 125 89 59 182 114 205 123 92 32 355 115 386
122 116 24 334 37 833 50 313 8 583 19 620 26 70 12 406 25 748 27 188 2 230
-1 364 -24z m4333 -1639 c50 -8 141 -19 204 -25 125 -12 254 -40 434 -94 65
-20 125 -36 133 -36 32 0 257 -92 399 -164 165 -83 261 -151 271 -192 11 -42
-7 -77 -49 -98 -32 -15 -42 -16 -68 -6 -16 7 -36 25 -44 41 -11 20 -46 43
-132 85 -65 32 -129 65 -142 73 -41 26 -212 90 -296 112 -44 11 -114 31 -155
44 -108 35 -282 72 -375 80 -44 4 -120 13 -170 22 -64 10 -142 14 -268 11
-178 -3 -179 -3 -198 21 -43 53 -7 117 76 130 82 14 284 12 380 -4z m-30 -624
c50 -11 126 -27 170 -36 121 -24 152 -34 255 -80 52 -23 140 -55 195 -70 130
-36 276 -96 450 -183 143 -72 167 -89 179 -129 9 -30 -19 -81 -51 -94 -33 -12
-51 -6 -123 42 -32 21 -80 47 -107 58 -26 11 -68 31 -93 44 -25 14 -119 50
-210 80 -91 30 -221 77 -290 104 -69 28 -147 53 -175 57 -27 4 -86 16 -130 26
-44 11 -110 26 -146 35 -37 8 -111 15 -173 15 -100 0 -108 2 -131 25 -48 47
-20 117 50 128 55 10 239 -3 330 -22z m1629 -2273 c-23 -129 -34 -274 -23
-313 10 -36 32 -59 70 -73 42 -16 77 -2 133 54 56 56 88 73 251 131 90 33 113
36 231 41 104 3 143 1 190 -13 82 -23 102 -39 130 -101 32 -73 53 -280 36
-355 -7 -28 -12 -70 -12 -93 0 -24 -4 -56 -9 -72 -5 -16 -14 -124 -20 -239
-10 -206 -10 -212 -46 -304 -21 -55 -40 -124 -45 -170 -10 -81 -26 -137 -83
-271 -69 -163 -85 -216 -107 -335 -19 -108 -26 -130 -75 -215 -30 -52 -70
-130 -89 -173 -63 -138 -230 -371 -371 -517 -45 -47 -116 -126 -158 -177 -136
-167 -383 -383 -583 -511 -108 -69 -160 -69 -183 1 -13 37 -8 56 26 106 16 23
23 48 23 81 0 26 7 67 15 91 9 24 22 114 30 199 25 267 17 461 -25 614 -38
136 -55 348 -52 641 4 350 15 505 46 695 41 244 104 418 281 770 133 265 142
281 275 440 53 63 109 133 125 154 38 50 41 36 19 -86z m-8929 -1093 c32 -31
34 -93 5 -120 -26 -24 -114 -47 -118 -31 -2 6 -10 28 -19 48 -28 66 7 128 72
128 25 0 44 -8 60 -25z m119 -195 c17 -6 28 -21 35 -47 15 -53 15 -55 -22 -80
-46 -31 -90 -30 -116 3 -58 73 13 159 103 124z"/>
<path d="M10700 12170 c-25 -4 -126 -19 -226 -33 -99 -15 -228 -38 -285 -51
-57 -13 -124 -27 -149 -31 -72 -11 -195 -53 -325 -110 -66 -29 -140 -60 -165
-69 -123 -46 -180 -124 -188 -257 -6 -106 3 -143 46 -191 45 -50 102 -77 162
-78 85 0 295 31 460 69 91 21 201 44 245 50 44 6 109 18 145 26 205 47 374 56
544 29 161 -25 502 -111 606 -153 52 -21 142 -51 200 -66 115 -31 144 -44 239
-110 68 -47 107 -56 154 -34 29 13 57 58 57 91 0 40 -135 231 -219 310 -42 39
-101 100 -131 134 -72 83 -158 155 -231 194 -33 17 -90 56 -127 85 -82 67
-189 128 -296 172 l-81 33 -195 -2 c-107 0 -215 -4 -240 -8z"/>
<path d="M10430 10680 c-90 -9 -139 -21 -245 -61 -44 -17 -118 -44 -165 -61
-47 -17 -107 -42 -135 -55 -55 -28 -159 -108 -216 -168 -66 -67 -159 -238
-207 -378 -49 -144 -50 -176 -5 -221 50 -51 140 -25 162 47 72 234 155 379
269 470 37 30 77 59 89 66 40 20 254 93 260 87 3 -2 -3 -49 -12 -103 -27 -151
-31 -336 -10 -408 25 -88 58 -146 108 -192 58 -54 75 -62 144 -69 49 -5 82 0
193 30 205 56 214 60 281 138 68 79 76 94 119 213 23 66 33 115 37 183 3 51 9
91 12 90 19 -9 155 -123 220 -185 84 -79 139 -107 188 -98 44 8 83 57 83 103
0 32 -8 44 -67 100 -38 35 -111 98 -163 140 -52 42 -119 98 -147 124 -86 77
-162 110 -429 182 -138 38 -198 42 -364 26z m272 -408 c15 -14 30 -39 34 -56
6 -26 2 -34 -27 -59 -29 -24 -40 -28 -74 -23 -71 9 -107 80 -69 134 33 47 88
49 136 4z m-86 -243 c11 -11 25 -40 31 -65 10 -42 9 -46 -11 -53 -84 -32 -138
-20 -156 35 -29 85 69 145 136 83z"/>
<path d="M10315 4650 c-22 -12 -89 -37 -150 -57 -60 -19 -157 -50 -215 -69
-142 -48 -240 -69 -400 -89 -74 -9 -176 -27 -227 -41 -51 -13 -145 -31 -210
-40 -65 -8 -165 -24 -223 -37 -96 -20 -131 -21 -401 -20 -268 2 -310 4 -435
27 -217 38 -268 46 -314 46 -50 0 -246 35 -307 56 -55 18 -97 9 -128 -28 -49
-58 -23 -127 62 -163 47 -21 243 -61 338 -70 113 -10 211 -25 353 -52 129 -24
141 -25 470 -20 263 4 352 8 405 21 38 9 123 23 190 31 67 9 174 29 237 45 63
15 162 33 220 40 144 16 287 46 400 85 52 18 160 53 240 79 160 50 222 84 246
134 44 92 -55 173 -151 122z"/>
</g>
</svg>
